<?xml version="1.0" standalone="no"?>
<!DOCTYPE svg PUBLIC "-//W3C//DTD SVG 20010904//EN"
 "http://www.w3.org/TR/2001/REC-SVG-20010904/DTD/svg10.dtd">
<svg version="1.0" xmlns="http://www.w3.org/2000/svg"
 width="3375.000000pt" height="3375.000000pt" viewBox="0 0 3375.000000 3375.000000"
 preserveAspectRatio="xMidYMid meet">

<g transform="translate(0.000000,3375.000000) scale(0.100000,-0.100000)"
fill="#000000" stroke="none">
<path d="M16305 33394 c-1615 -65 -3062 -324 -4562 -815 -1611 -528 -3132
-1305 -4528 -2313 -399 -288 -857 -654 -1205 -960 -536 -473 -1124 -1063
-1571 -1576 -1130 -1296 -2049 -2755 -2724 -4320 -703 -1629 -1140 -3370
-1289 -5140 -44 -515 -50 -692 -51 -1395 0 -684 4 -822 41 -1295 239 -3120
1351 -6089 3219 -8595 1129 -1515 2533 -2849 4095 -3892 1948 -1299 4113
-2159 6431 -2552 1187 -202 2567 -273 3774 -196 1576 102 3021 393 4467 901
1402 492 2746 1182 3978 2042 1070 748 2116 1684 2966 2657 992 1135 1791
2332 2431 3642 1288 2638 1845 5515 1637 8463 -117 1667 -495 3333 -1109 4885
-494 1248 -1153 2460 -1918 3525 -584 812 -1071 1385 -1791 2106 -691 690
-1310 1215 -2106 1784 -850 608 -1812 1160 -2780 1597 -1399 632 -2866 1060
-4390 1282 -424 62 -890 110 -1430 147 -209 15 -1351 27 -1585 18z m805 -1651
c1 -71 7 -393 14 -718 8 -324 11 -594 7 -598 -4 -4 -72 -6 -151 -5 l-144 3
-315 487 c-190 295 -319 484 -324 479 -6 -6 -5 -200 1 -492 6 -265 9 -486 6
-491 -3 -4 -65 -8 -139 -8 l-133 0 -6 83 c-5 79 -26 1117 -26 1285 l0 82 164
0 164 0 297 -455 c170 -259 304 -455 312 -455 12 0 14 10 9 48 -3 26 -8 235
-12 465 l-6 417 141 0 141 0 0 -127z m1168 62 c155 -38 296 -135 354 -243 49
-91 53 -84 -73 -147 -61 -31 -117 -54 -124 -51 -7 2 -22 25 -34 50 -41 84
-120 135 -245 157 -230 40 -390 -78 -440 -324 -49 -237 -22 -454 69 -550 70
-73 192 -114 312 -103 148 13 223 90 239 245 8 72 23 65 -186 81 -80 7 -146
12 -146 13 -2 2 18 231 20 234 0 0 142 -11 314 -25 266 -22 312 -28 311 -41 0
-9 -15 -187 -32 -396 l-33 -380 -74 2 c-41 1 -104 5 -139 8 l-63 7 7 94 c8
103 0 116 -35 59 -51 -83 -154 -136 -280 -142 -296 -16 -519 155 -586 452 -25
107 -25 334 0 460 47 239 160 406 336 495 56 28 137 55 195 64 57 9 270 -3
333 -19z m-2690 -104 c6 -63 9 -118 5 -121 -5 -4 -118 -19 -253 -34 -135 -15
-281 -32 -326 -38 l-80 -10 19 -162 c10 -88 20 -162 21 -163 1 -1 130 13 287
31 156 18 287 32 290 30 8 -4 33 -224 27 -230 -3 -2 -131 -19 -286 -37 -155
-18 -284 -35 -286 -38 -3 -3 4 -89 16 -192 20 -176 23 -187 42 -187 12 1 164
18 339 39 175 20 320 34 322 31 7 -11 29 -229 24 -234 -4 -4 -962 -117 -965
-113 -5 6 -166 1428 -162 1432 5 6 907 113 933 111 18 -1 21 -13 33 -115z
m3957 -82 c253 -44 463 -84 466 -87 7 -7 -28 -223 -37 -231 -4 -4 -477 75
-635 106 l-25 5 -28 -162 c-16 -88 -27 -162 -25 -164 2 -2 128 -25 279 -51
151 -26 279 -51 284 -55 9 -9 -21 -210 -33 -223 -4 -4 -135 15 -291 43 -156
27 -284 49 -285 47 -9 -13 -64 -372 -58 -377 4 -4 154 -32 332 -63 178 -31
326 -59 329 -62 7 -6 -28 -217 -38 -228 -7 -8 -938 151 -952 163 -5 3 46 312
112 685 134 762 129 735 138 735 4 0 214 -36 467 -81z m-5373 -82 c154 -76
241 -230 241 -427 0 -148 -60 -263 -176 -340 -78 -52 -144 -75 -316 -111 -80
-17 -151 -32 -157 -34 -8 -2 5 -85 41 -262 29 -142 50 -261 46 -264 -6 -6
-273 -61 -277 -56 -6 7 -287 1407 -283 1412 3 3 136 32 295 65 264 54 298 59
400 57 105 -2 114 -4 186 -40z m6288 -109 c69 -17 129 -35 134 -39 4 -4 -57
-258 -137 -566 -80 -307 -147 -567 -149 -578 -3 -18 26 -27 307 -101 171 -45
309 -85 309 -90 -8 -49 -59 -224 -66 -224 -12 0 -891 230 -896 234 -2 2 78
315 177 695 100 381 181 694 181 697 0 7 12 5 140 -28z m-8461 -520 c27 -84
109 -335 181 -558 73 -223 136 -409 140 -414 4 -4 141 35 303 88 162 53 299
96 305 96 8 0 85 -220 79 -227 -3 -2 -868 -285 -880 -287 -9 -1 -459 1365
-452 1372 7 7 239 80 257 81 13 1 28 -33 67 -151z m9984 78 c157 -40 289 -115
384 -220 157 -172 186 -425 82 -724 -95 -271 -255 -446 -464 -508 -80 -24
-236 -23 -329 1 -507 130 -675 547 -430 1065 157 332 427 470 757 386z
m-10479 -861 c272 -302 493 -551 491 -553 -2 -3 -65 -30 -139 -62 l-135 -58
-112 129 c-61 71 -116 129 -122 129 -8 0 -483 -197 -496 -206 -4 -3 16 -256
25 -314 l5 -35 -137 -58 c-75 -32 -138 -57 -139 -55 -4 3 -105 1448 -105 1494
0 29 5 32 168 101 156 67 168 71 184 55 9 -9 239 -264 512 -567z m11630 385
c69 -33 126 -63 126 -68 0 -4 -112 -248 -250 -540 -137 -293 -250 -536 -250
-540 0 -4 131 -68 290 -142 160 -74 290 -136 290 -136 0 -1 -16 -36 -35 -79
-20 -43 -34 -79 -33 -80 2 -1 251 213 555 476 l552 479 158 -91 c87 -51 159
-93 160 -94 2 0 -63 -335 -142 -743 -80 -407 -145 -743 -145 -746 0 -14 -26
-2 -142 65 -68 40 -124 73 -125 73 -1 1 14 75 33 165 20 90 33 168 31 175 -3
6 -109 71 -236 144 l-231 134 -130 -117 -130 -117 -103 60 c-56 33 -142 78
-192 101 -276 124 -790 370 -790 378 0 9 606 1303 610 1303 1 0 59 -27 129
-60z m-12839 -881 c187 -342 341 -627 343 -634 3 -12 -228 -145 -251 -145 -7
0 -237 128 -512 284 -275 156 -504 280 -508 276 -5 -4 95 -196 221 -426 127
-231 232 -425 234 -433 2 -10 -37 -37 -111 -78 -62 -35 -117 -63 -121 -63 -8
0 -704 1260 -698 1264 2 2 67 37 145 80 l142 77 476 -267 c271 -152 480 -263
485 -258 4 5 -90 186 -211 404 -120 217 -218 400 -218 405 -1 10 215 133 234
134 6 0 163 -279 350 -620z m-1705 -398 c100 -31 187 -88 280 -181 134 -133
244 -314 286 -470 25 -96 24 -237 -4 -327 -59 -191 -254 -377 -480 -456 -76
-27 -100 -31 -192 -31 -118 0 -202 24 -308 86 -127 74 -297 278 -377 451 -149
323 -54 631 258 835 177 115 366 147 537 93z m8640 0 c0 -26 19 -31 113 -31
87 0 470 -24 652 -40 690 -63 1281 -167 1975 -346 1939 -500 3746 -1481 5230
-2840 2014 -1844 3371 -4346 3824 -7050 123 -735 170 -1294 170 -2054 0 -646
-31 -1111 -115 -1710 -322 -2293 -1300 -4471 -2804 -6245 -157 -185 -235 -271
-246 -268 -5 2 -8 -3 -6 -10 1 -6 -4 -11 -10 -10 -7 2 -12 -3 -10 -10 1 -6 -4
-11 -11 -9 -8 1 -11 -1 -8 -6 10 -17 -54 -67 -87 -67 -18 -1 -31 -5 -30 -11 1
-6 -32 -10 -80 -10 -49 0 -81 -4 -80 -10 1 -6 -31 -10 -80 -10 -49 0 -81 -4
-80 -10 1 -6 -28 -10 -70 -10 -43 0 -71 -4 -70 -10 1 -6 -31 -10 -80 -10 -49
0 -81 -4 -80 -10 1 -6 -31 -10 -80 -10 -49 0 -81 -4 -80 -10 1 -6 -31 -10 -80
-10 -49 0 -81 -4 -80 -10 1 -6 -28 -10 -70 -10 -43 0 -71 -4 -70 -10 1 -6 -31
-10 -80 -10 -49 0 -81 -4 -80 -10 1 -6 -31 -10 -80 -10 -49 0 -81 -4 -80 -10
1 -6 -28 -10 -70 -10 -43 0 -71 -4 -70 -10 1 -6 -31 -10 -80 -10 -49 0 -81 -4
-80 -10 1 -6 -31 -10 -80 -10 -49 0 -81 -4 -80 -10 1 -6 -31 -10 -80 -10 -49
0 -81 -4 -80 -10 1 -6 -28 -10 -70 -10 -43 0 -71 -4 -70 -10 1 -6 -31 -10 -80
-10 -49 0 -81 -4 -80 -10 1 -6 -31 -10 -80 -10 -49 0 -81 -4 -80 -10 1 -6 -31
-10 -80 -10 -49 0 -81 -4 -80 -10 1 -6 -28 -10 -70 -10 -43 0 -71 -4 -70 -10
1 -6 -31 -10 -80 -10 -49 0 -81 -4 -80 -10 1 -6 -31 -10 -80 -10 -49 0 -81 -4
-80 -10 1 -6 -28 -10 -70 -10 -43 0 -71 -4 -70 -10 1 -6 -31 -10 -80 -10 -49
0 -81 -4 -80 -10 1 -6 -31 -10 -80 -10 -49 0 -81 -4 -80 -10 1 -6 -31 -10 -80
-10 -49 0 -81 -4 -80 -10 1 -6 -28 -10 -70 -10 -43 0 -71 -4 -70 -10 1 -6 -31
-10 -80 -10 -49 0 -81 -4 -80 -10 1 -6 -31 -10 -80 -10 -49 0 -81 -4 -80 -10
1 -6 -28 -10 -70 -10 -43 0 -71 -4 -70 -10 1 -5 -18 -10 -42 -10 -41 0 -46 6
-35 36 1 3 1 15 0 28 -1 12 2 22 7 22 12 0 -4 192 -22 264 -21 83 -73 189
-128 262 -124 163 -326 246 -529 216 -46 -7 -255 -57 -466 -112 -211 -55 -385
-100 -388 -100 -9 0 -1 -38 81 -358 48 -183 83 -336 80 -341 -3 -5 -1 -11 4
-13 6 -1 12 -16 15 -33 2 -16 5 -31 5 -32 5 -15 -9 -18 -71 -18 -43 -1 -72 -5
-71 -11 1 -6 -28 -10 -70 -10 -43 0 -71 -4 -70 -10 1 -6 -31 -10 -80 -10 -49
0 -81 -4 -80 -10 1 -6 -31 -10 -80 -10 -49 0 -81 -4 -80 -10 1 -6 -31 -10 -80
-10 -49 0 -81 -4 -80 -10 1 -5 -18 -10 -42 -10 -29 0 -41 4 -36 11 5 5 7 19 5
30 -2 11 -8 57 -14 101 -40 317 -236 526 -522 560 -37 4 -210 -7 -492 -32
l-436 -38 0 -36 c0 -19 13 -177 29 -350 16 -173 28 -328 26 -345 -1 -16 1 -34
5 -40 16 -25 4 -40 -30 -40 -19 -1 -34 -5 -33 -11 1 -6 -32 -10 -80 -10 -49 0
-81 -4 -80 -10 1 -6 -28 -10 -70 -10 -43 0 -71 -4 -70 -10 1 -6 -31 -10 -80
-10 -49 0 -81 -4 -80 -10 1 -6 -31 -10 -80 -10 -49 0 -81 -4 -80 -10 1 -6 -28
-10 -70 -10 -43 0 -71 -4 -70 -10 1 -6 -29 -9 -75 -9 -76 0 -76 0 -77 28 -1
15 2 30 6 33 4 2 5 16 3 30 -3 15 9 202 26 416 17 215 28 393 25 397 -5 5
-406 41 -412 37 0 0 -18 -203 -38 -451 -20 -247 -38 -466 -40 -485 -2 -19 -4
-36 -5 -37 -1 -2 -3 -9 -4 -15 0 -7 -8 -13 -16 -13 -8 -1 -14 -6 -13 -11 1 -6
-9 -10 -22 -10 -26 2 -95 61 -95 82 0 7 -4 14 -8 16 -12 5 -40 43 -417 558
-191 261 -354 481 -363 488 -9 6 -37 12 -63 12 -47 0 -47 0 -53 -37 -3 -21
-24 -285 -48 -588 -23 -302 -45 -552 -48 -555 -3 -3 -6 -30 -5 -60 l1 -56 -61
0 c-35 0 -59 -4 -58 -10 1 -6 -31 -10 -80 -10 -49 0 -81 -4 -80 -10 1 -6 -28
-10 -70 -10 -43 0 -71 -4 -70 -10 1 -6 -31 -10 -80 -10 -49 0 -81 -4 -80 -10
1 -6 -31 -10 -80 -10 -49 0 -81 -4 -80 -10 1 -6 -31 -10 -80 -10 -49 0 -81 -4
-80 -10 1 -5 -26 -9 -62 -9 -41 0 -61 3 -57 10 4 5 7 13 8 18 1 4 3 9 4 12 3
6 3 7 19 89 26 132 -1 281 -69 382 -17 26 -30 47 -28 48 2 2 24 14 49 29 104
59 191 190 230 348 17 66 20 103 17 193 -7 166 -51 269 -166 382 -84 83 -165
116 -494 200 -161 41 -351 91 -423 109 -71 19 -133 31 -137 27 -3 -4 -117
-439 -252 -967 -136 -528 -249 -967 -253 -975 -15 -34 -1 -60 29 -55 10 2 20
-1 23 -6 4 -5 10 -7 15 -4 5 3 11 1 15 -5 4 -6 10 -8 15 -5 5 3 11 1 14 -4 3
-4 -4 -8 -17 -7 -12 0 -21 -4 -20 -9 1 -7 -30 -11 -80 -11 -49 0 -81 -4 -80
-10 1 -6 -28 -10 -70 -10 -43 0 -71 -4 -70 -10 1 -6 -31 -10 -80 -10 -49 0
-81 -4 -80 -10 1 -6 -31 -10 -80 -10 -49 0 -81 -4 -80 -10 1 -6 -28 -10 -70
-10 -43 0 -71 -4 -70 -10 1 -6 -31 -10 -80 -10 -49 0 -81 -4 -80 -10 1 -6 -31
-10 -80 -10 -49 0 -81 -4 -80 -10 1 -6 -31 -10 -80 -10 -49 0 -81 -4 -80 -10
1 -6 -28 -10 -70 -10 -43 0 -71 -4 -70 -10 1 -6 -31 -10 -80 -10 -49 0 -81 -4
-80 -10 1 -6 -31 -10 -80 -10 -49 0 -81 -4 -80 -10 1 -6 -31 -10 -80 -10 -49
0 -81 -4 -80 -10 1 -6 -28 -10 -70 -10 -43 0 -71 -4 -70 -10 1 -6 -31 -10 -80
-10 -49 0 -81 -4 -80 -10 1 -6 -31 -10 -80 -10 -49 0 -81 -4 -80 -10 1 -6 -28
-10 -70 -10 -43 0 -71 -4 -70 -10 1 -6 -31 -10 -80 -10 -52 0 -81 -3 -80 -10
3 -19 -26 -11 -48 12 -21 22 -9 28 20 10 9 -6 12 -5 8 1 -4 7 5 10 23 8 16 -1
28 1 25 4 -2 4 23 7 56 6 33 -1 62 2 65 6 2 4 13 6 24 4 12 -2 18 0 16 4 -3 4
17 7 45 6 27 -1 52 2 55 6 2 4 13 6 24 4 12 -2 18 -1 16 4 -3 4 22 7 55 6 33
-1 62 2 65 6 2 4 13 6 24 4 12 -2 18 -1 16 4 -3 4 22 7 55 6 33 -1 62 2 65 6
2 4 13 6 24 4 12 -2 18 -1 16 4 -3 4 22 7 54 6 32 -1 57 2 54 6 -2 5 5 6 16 4
11 -2 18 -1 16 4 -3 4 22 7 55 6 33 -1 62 2 65 6 2 4 13 6 24 4 12 -2 18 -1
16 4 -3 4 22 7 55 6 33 -1 62 2 65 6 2 4 13 6 24 4 12 -2 18 -1 16 4 -3 4 22
7 55 6 33 -1 62 2 65 6 2 4 13 6 24 4 12 -2 18 0 16 4 -3 4 17 7 45 6 27 -1
52 2 55 6 2 4 13 6 24 4 12 -2 18 -1 16 4 -3 4 22 7 55 6 33 -1 62 2 65 6 2 4
13 6 24 4 12 -2 18 -1 16 4 -3 4 22 7 55 6 33 -1 62 2 65 6 2 4 13 6 24 4 12
-2 18 -1 16 4 -3 4 22 7 55 6 33 -1 62 2 65 6 2 4 13 6 24 4 12 -2 18 0 16 4
-3 4 17 7 45 6 27 -1 52 2 55 6 2 4 13 6 24 4 12 -2 18 -1 16 4 -3 4 22 7 55
6 33 -1 62 2 65 6 2 4 13 6 24 4 12 -2 18 -1 16 4 -3 4 22 7 55 6 33 -1 62 2
65 6 2 4 13 6 24 4 12 -2 18 0 16 4 -3 4 17 7 45 6 27 -1 52 2 55 6 2 4 13 6
24 4 12 -2 18 0 16 4 -3 4 7 7 22 7 15 -1 28 3 30 9 1 5 -22 10 -52 10 -32 1
-54 -3 -53 -9 1 -6 -27 -10 -70 -10 -42 0 -71 -4 -70 -10 1 -6 -31 -10 -80
-10 -49 0 -81 -4 -80 -10 1 -6 -31 -10 -80 -10 -49 0 -81 -4 -80 -10 1 -6 -27
-10 -70 -10 -42 0 -71 -4 -70 -10 1 -6 -31 -10 -80 -10 -49 0 -81 -4 -80 -10
1 -6 -31 -10 -80 -10 -49 0 -81 -4 -80 -10 1 -6 -31 -10 -80 -10 -49 0 -81 -4
-80 -10 1 -6 -27 -10 -70 -10 -42 0 -71 -4 -70 -10 1 -6 -31 -10 -80 -10 -49
0 -81 -4 -80 -10 1 -6 -31 -10 -80 -10 -49 0 -81 -4 -80 -10 1 -6 -27 -10 -70
-10 -42 0 -71 -4 -70 -10 1 -6 -31 -10 -80 -10 -49 0 -81 -4 -80 -10 1 -6 -31
-10 -80 -10 -49 0 -81 -4 -80 -10 1 -6 -31 -10 -80 -10 -49 0 -81 -4 -80 -10
1 -6 -27 -10 -70 -10 -42 0 -71 -4 -70 -10 1 -6 -31 -10 -80 -10 -48 0 -81 -4
-80 -10 1 -6 -7 -10 -18 -11 -11 0 -25 -3 -31 -7 -6 -4 -21 2 -32 13 -12 10
-25 20 -29 20 -5 1 -7 6 -5 12 2 7 0 9 -3 5 -14 -14 -110 48 -430 276 -870
619 -1679 1377 -2364 2216 -1051 1286 -1835 2785 -2298 4390 -267 929 -423
1870 -474 2860 -15 303 -6 1135 15 1420 54 710 146 1316 298 1960 530 2252
1696 4327 3339 5946 962 946 2020 1696 3234 2290 1132 554 2320 926 3570 1118
847 130 1387 181 1988 185 217 1 227 0 227 -18z m8738 -380 c130 -98 263 -206
295 -240 180 -189 167 -446 -34 -642 -134 -131 -320 -155 -500 -64 -25 13
-106 69 -180 124 l-134 101 -27 -32 c-15 -18 -87 -112 -160 -210 -73 -97 -137
-177 -141 -178 -13 0 -222 161 -222 171 0 9 856 1148 863 1149 2 0 110 -81
240 -179z m-18282 -903 c247 -304 450 -557 451 -563 1 -5 -47 -49 -106 -97
l-108 -87 -25 27 c-55 60 -890 1093 -886 1097 17 17 214 175 219 175 3 0 208
-248 455 -552z m19454 -59 c184 -165 344 -309 354 -319 19 -19 18 -21 -58
-104 -43 -48 -82 -86 -87 -86 -6 0 -119 99 -252 220 l-242 220 -73 -78 c-40
-42 -91 -98 -113 -123 l-39 -47 215 -193 c119 -106 214 -196 213 -200 -5 -14
-143 -168 -151 -168 -4 -1 -103 85 -218 189 -116 105 -214 190 -218 190 -15 0
-263 -282 -255 -289 5 -4 120 -108 257 -230 l247 -223 -70 -78 c-38 -42 -76
-82 -83 -88 -11 -9 -90 57 -375 314 l-362 326 88 97 c48 53 264 293 481 534
217 240 397 437 400 437 4 0 157 -135 341 -301z m-20272 -18 c7 -62 11 -119 8
-126 -2 -7 -32 -14 -74 -17 -50 -4 -89 -14 -136 -36 -77 -36 -178 -127 -209
-187 -69 -136 53 -260 197 -200 20 9 85 44 144 79 216 128 315 164 421 152
109 -13 220 -84 296 -190 66 -93 87 -161 83 -263 -4 -73 -9 -92 -48 -169 -89
-180 -313 -358 -510 -404 -63 -15 -168 -19 -221 -7 l-36 7 -7 125 c-4 68 -5
129 -2 133 3 5 46 7 96 4 157 -9 278 41 382 157 52 57 73 114 64 166 -9 47
-58 109 -102 130 -57 27 -122 10 -259 -67 -236 -134 -320 -164 -431 -155 -212
17 -391 241 -357 444 27 156 137 306 318 435 107 76 201 108 305 105 l65 -2
13 -114z m21091 -777 c121 -130 236 -260 256 -290 112 -169 97 -344 -42 -483
-76 -75 -138 -104 -228 -109 -53 -3 -84 1 -130 17 -33 12 -68 24 -77 28 -15 4
-16 -2 -11 -63 7 -94 -9 -135 -164 -422 l-127 -236 -103 109 -102 109 23 41
c13 22 70 125 126 229 146 266 146 296 6 442 l-71 74 -212 -200 c-117 -110
-217 -200 -222 -200 -5 0 -52 46 -105 102 l-95 102 57 52 c31 28 269 250 527
492 259 243 471 441 472 441 1 1 101 -105 222 -235z m-21707 -450 c381 -162
695 -297 697 -299 4 -5 -191 -225 -200 -225 -3 0 -66 27 -140 61 -74 33 -144
65 -156 69 -19 8 -41 -12 -202 -190 -100 -109 -181 -203 -181 -208 0 -6 37
-74 81 -152 72 -125 80 -144 70 -163 -7 -12 -51 -64 -99 -115 l-87 -92 -368
670 -367 671 122 134 c67 74 126 135 130 135 4 0 319 -133 700 -296z m22631
-615 c241 -310 281 -382 281 -498 0 -58 -5 -88 -23 -128 -26 -60 -106 -140
-171 -173 -60 -31 -154 -38 -219 -16 -70 23 -72 22 -54 -26 9 -24 16 -78 17
-123 1 -72 -2 -87 -32 -147 -40 -81 -116 -154 -210 -200 -62 -31 -74 -33 -167
-33 -93 0 -105 2 -166 32 -36 18 -90 56 -122 85 -31 29 -153 178 -272 332
l-215 278 153 118 c83 64 339 262 567 438 228 177 420 320 425 319 6 -2 99
-118 208 -258z m-23503 -352 c305 -225 563 -416 572 -424 15 -14 10 -25 -70
-134 l-87 -119 -40 5 c-22 3 -265 23 -540 45 -275 22 -520 43 -543 46 -36 4
-43 3 -40 -10 1 -8 179 -144 393 -302 215 -158 391 -288 392 -289 5 -3 -160
-220 -168 -220 -6 0 -797 580 -1147 841 -12 8 3 34 83 142 61 83 104 132 115
132 10 0 244 -18 520 -40 548 -44 560 -44 560 -31 0 5 -165 131 -366 279 -201
149 -365 274 -365 279 -1 17 156 221 166 215 5 -3 259 -190 565 -415z m24446
-977 c51 -80 93 -151 93 -158 1 -12 -938 -1192 -948 -1192 -4 0 -41 57 -84
126 -71 112 -77 127 -65 142 8 9 59 70 112 135 l97 117 -143 226 c-78 125
-148 228 -154 231 -7 2 -83 -14 -170 -37 -112 -29 -160 -38 -168 -30 -18 18
-154 235 -150 239 7 7 1458 349 1473 348 8 -1 56 -67 107 -147z m-25588 -681
c345 -188 628 -343 630 -344 2 -2 -29 -62 -68 -134 -70 -128 -73 -131 -105
-131 -109 0 -1121 -62 -1128 -69 -10 -10 -13 -8 461 -266 211 -115 386 -213
388 -219 6 -15 -115 -236 -129 -236 -6 0 -293 154 -639 342 l-628 341 19 31
c10 17 41 74 69 126 28 52 57 104 65 114 14 18 52 22 551 51 308 18 541 36
547 42 7 7 -115 78 -383 223 -216 117 -399 217 -405 223 -10 7 2 38 50 128 34
65 65 119 70 119 4 0 290 -154 635 -341z m26258 -488 c140 -271 254 -494 252
-496 -16 -12 -198 -105 -206 -105 -6 0 -52 80 -103 178 -50 97 -93 179 -95
180 -1 2 -239 -118 -527 -267 -289 -149 -530 -271 -536 -271 -12 0 -139 246
-131 253 3 2 192 99 420 217 228 117 466 240 528 272 l113 60 -96 183 -95 184
102 54 c57 30 107 54 111 53 5 -1 123 -223 263 -495z m-26989 -970 c398 -26
725 -50 728 -53 4 -3 -98 -258 -110 -276 -1 -1 -80 5 -175 13 -95 8 -174 14
-175 13 -3 -5 -204 -486 -207 -496 -2 -5 56 -60 127 -122 72 -62 129 -117 127
-123 -2 -6 -26 -67 -54 -134 -35 -84 -55 -122 -64 -119 -7 3 -265 231 -572
507 l-560 501 45 107 c25 58 56 134 71 169 25 60 27 62 61 62 20 -1 361 -22
758 -49z m27545 -236 c37 -88 67 -165 67 -172 1 -11 -1117 -1004 -1138 -1011
-5 -2 -33 57 -62 130 -30 72 -55 135 -57 138 -1 4 58 57 131 119 l134 113
-103 250 c-57 138 -105 252 -107 254 -1 2 -79 -3 -172 -10 -94 -7 -172 -12
-174 -10 -7 6 -111 267 -107 271 4 4 1482 92 1506 89 9 -1 40 -61 82 -161z
m-28190 -860 c256 -44 468 -160 572 -312 100 -147 126 -315 80 -523 -13 -58
-172 -590 -179 -598 -3 -4 -1326 402 -1361 417 -22 9 -21 13 63 283 99 317
124 381 187 476 145 219 360 306 638 257z m28411 -70 c122 -60 227 -214 279
-405 32 -120 32 -300 0 -381 -39 -97 -31 -94 -159 -52 -62 21 -115 43 -117 50
-3 7 4 34 16 60 45 101 32 272 -30 387 -60 110 -170 128 -252 41 -28 -30 -28
-42 -19 -415 3 -140 1 -173 -14 -216 -41 -118 -128 -202 -255 -246 -53 -18
-89 -23 -167 -23 -93 0 -105 2 -166 32 -174 86 -294 315 -306 583 -7 163 22
274 99 377 l24 31 114 -46 c73 -30 116 -53 118 -63 2 -9 -11 -39 -28 -65 -17
-27 -40 -80 -52 -118 -36 -118 -13 -273 54 -372 25 -37 89 -74 127 -74 42 0
102 23 131 50 48 45 54 90 40 305 -9 146 -9 205 0 255 29 163 115 266 267 320
87 31 217 24 296 -15z m-159 -1414 l710 -86 38 -175 c20 -96 36 -178 35 -182
-2 -8 -1300 -797 -1304 -794 -7 6 -63 287 -59 294 3 5 71 47 150 93 102 59
144 89 142 99 -3 8 -28 125 -56 260 -29 135 -56 249 -60 254 -5 4 -83 16 -174
26 -92 9 -168 19 -169 21 -5 7 -57 254 -57 271 0 14 7 16 48 11 26 -3 366 -44
756 -92z m-27814 -68 c0 -20 -54 -279 -59 -285 -3 -4 -82 -16 -175 -27 -92
-11 -169 -21 -171 -23 -2 -3 -105 -520 -105 -530 0 -3 66 -43 148 -89 81 -45
149 -83 151 -85 4 -3 -47 -253 -57 -275 -6 -15 -379 199 -1284 737 l-36 22 35
173 c19 96 38 178 42 182 7 7 1422 202 1489 206 12 0 22 -2 22 -6z m28762
-1288 c15 -127 16 -162 6 -171 -7 -6 -200 -159 -428 -339 -228 -180 -416 -331
-418 -336 -6 -15 54 -10 497 40 285 32 424 44 427 37 6 -17 33 -261 29 -264
-6 -6 -1427 -163 -1431 -159 -5 5 -34 238 -34 272 0 15 123 116 455 375 397
311 480 381 448 380 -5 0 -224 -25 -488 -54 -264 -30 -483 -52 -486 -50 -8 5
-33 264 -25 271 7 8 1360 162 1401 160 l30 -2 17 -160z m-29400 -26 c203 -43
318 -197 318 -425 0 -70 -65 -734 -73 -739 -5 -4 -1426 150 -1431 155 -6 7 60
626 74 697 45 213 230 335 424 279 96 -28 155 -77 200 -163 9 -18 21 -33 26
-33 5 0 21 23 35 50 42 84 125 153 215 181 38 11 153 10 212 -2z m1750 -1964
c21 -675 73 -1225 174 -1820 336 -1992 1158 -3892 2378 -5495 352 -463 677
-833 1115 -1270 981 -979 2023 -1722 3302 -2355 513 -254 988 -449 1548 -635
783 -261 1487 -424 2306 -535 877 -118 1905 -137 2781 -50 1462 145 2785 501
4089 1100 2174 998 4006 2602 5297 4636 423 666 820 1458 1113 2220 496 1289
787 2749 811 4059 3 157 7 304 10 328 l5 42 195 -2 196 -3 -1 -205 c-6 -1174
-230 -2548 -607 -3715 -450 -1391 -1142 -2719 -2003 -3840 -985 -1284 -2119
-2314 -3481 -3162 -654 -407 -1445 -799 -2157 -1069 -730 -277 -1425 -473
-2208 -623 -1312 -251 -2796 -287 -4125 -100 -871 122 -1603 296 -2419 574
-1155 394 -2280 976 -3293 1701 -565 405 -1062 828 -1579 1344 -301 300 -480
493 -723 779 -1667 1961 -2698 4361 -2975 6922 -18 160 -36 382 -57 664 -8
114 -22 718 -17 728 3 4 75 6 161 5 l157 -3 7 -220z m214 -5703 c234 -459 238
-470 239 -632 0 -121 -1 -128 -32 -190 -47 -95 -126 -171 -237 -226 -182 -89
-332 -73 -494 55 -28 23 -55 41 -60 41 -5 0 -12 -24 -15 -54 -7 -69 -40 -144
-92 -211 -22 -29 -145 -159 -272 -289 l-232 -236 -55 103 c-30 56 -69 132 -87
170 l-33 67 236 238 c130 130 244 253 254 272 45 89 35 158 -47 322 -28 57
-53 104 -54 106 -2 2 -158 -75 -347 -172 l-343 -175 -84 165 c-46 91 -82 166
-80 168 2 2 337 172 744 379 911 462 899 456 905 456 3 0 87 -160 186 -357z
m25657 -156 c522 -74 951 -136 954 -139 3 -3 -35 -82 -83 -176 -76 -146 -91
-170 -109 -166 -97 21 -419 65 -425 58 -4 -4 -77 -146 -163 -314 l-155 -306
159 -159 158 -158 -86 -168 -87 -168 -39 37 c-164 160 -1312 1367 -1312 1381
0 9 46 108 102 219 83 162 106 200 120 197 10 -2 445 -65 966 -138z m-24594
-1650 c188 -272 343 -501 346 -508 5 -12 -222 -178 -243 -178 -5 0 -116 155
-247 345 -131 190 -241 348 -246 350 -4 3 -63 -33 -131 -81 -68 -47 -144 -100
-170 -117 -26 -18 -48 -35 -48 -38 0 -3 93 -140 206 -304 113 -164 208 -304
210 -309 2 -6 -51 -49 -117 -94 -100 -69 -124 -82 -134 -70 -7 7 -97 137 -201
288 -103 151 -195 285 -204 296 -16 22 -18 21 -215 -116 -110 -76 -201 -143
-203 -148 -2 -6 107 -170 243 -366 135 -195 245 -357 245 -360 0 -12 -252
-177 -259 -170 -27 30 -694 1009 -695 1019 0 7 271 201 604 430 333 230 672
464 755 521 82 57 153 104 157 104 3 0 160 -223 347 -494z m23626 -89 c418
-275 762 -502 764 -504 2 -1 -42 -72 -98 -157 l-103 -154 -126 82 c-263 171
-1407 928 -1415 936 -13 12 191 312 206 304 7 -4 354 -232 772 -507z m-1123
-570 c28 -108 36 -152 28 -162 -6 -7 -29 -15 -53 -19 -165 -25 -337 -154 -417
-313 -33 -65 -38 -155 -12 -203 27 -50 101 -93 160 -94 69 -1 124 30 304 174
88 70 184 141 213 159 207 125 392 129 568 11 309 -206 365 -515 154 -833
-161 -242 -394 -414 -611 -452 -95 -16 -174 -19 -192 -7 -17 11 -74 315 -62
330 7 8 39 12 94 12 160 0 302 65 422 194 101 109 141 214 112 301 -29 89
-141 163 -228 151 -64 -9 -126 -46 -313 -188 -173 -131 -268 -185 -377 -212
-79 -20 -122 -20 -196 -1 -151 40 -304 160 -364 286 -53 110 -59 252 -17 380
73 221 285 468 494 573 63 33 184 66 225 63 29 -2 30 -4 68 -150z m-14363
-139 c220 -56 261 -86 269 -197 5 -71 -10 -121 -51 -167 -40 -46 -80 -66 -131
-65 -36 1 -381 83 -391 93 -4 3 30 141 86 351 9 33 13 38 32 33 12 -3 96 -25
186 -48z m7097 14 c35 -18 91 -87 105 -128 20 -61 17 -142 -8 -189 -11 -22
-26 -39 -32 -37 -6 1 -10 -1 -8 -5 1 -5 -1 -9 -6 -10 -4 -2 -17 -12 -29 -23
-17 -15 -24 -17 -35 -8 -11 9 -13 8 -11 -2 2 -8 -5 -14 -17 -15 -11 0 -25 -3
-31 -7 -6 -4 -14 -4 -18 0 -12 11 -93 9 -93 -3 0 -7 6 -12 13 -12 7 0 11 3 9
7 -2 3 12 6 30 6 35 0 38 -10 4 -12 -10 -1 -21 -3 -24 -4 -3 -1 -9 -4 -15 -5
-5 -1 -12 -4 -15 -5 -3 -1 -14 -4 -25 -5 -11 -1 -22 -4 -25 -5 -3 -1 -9 -4
-15 -5 -5 -1 -12 -4 -15 -5 -3 -1 -9 -4 -15 -5 -5 -1 -12 -4 -15 -5 -3 -1 -14
-4 -25 -5 -11 -1 -21 -3 -22 -5 -2 -1 -10 -3 -19 -5 -15 -3 -16 1 -10 34 1 2
9 -3 18 -10 10 -8 14 -9 10 -2 -5 8 -1 11 13 8 11 -2 18 0 15 4 -2 5 9 7 25 6
17 -1 32 1 35 5 3 4 18 6 35 5 17 -1 28 0 25 4 -11 10 -154 7 -152 -3 1 -6 -7
-10 -18 -11 -11 0 -20 5 -21 10 0 6 -4 17 -8 25 -3 9 -26 91 -50 182 -42 164
-42 167 -22 172 64 18 335 85 356 88 30 4 78 -5 106 -20z m-14305 -412 c321
-355 355 -401 405 -550 27 -81 25 -225 -5 -310 -47 -133 -154 -258 -293 -343
-206 -125 -437 -101 -640 67 -35 29 -121 118 -193 199 -71 80 -133 146 -136
146 -3 1 -114 -97 -246 -216 -131 -120 -246 -224 -254 -230 -13 -11 -34 8
-138 123 l-123 137 38 37 c22 21 331 302 688 624 620 560 650 586 667 569 9
-10 113 -124 230 -253z m12102 16 c81 -33 131 -123 125 -222 l-4 -59 -51 0
c-30 1 -51 -3 -50 -9 1 -6 -30 -10 -80 -10 -49 0 -81 -4 -80 -10 1 -6 -31 -10
-80 -10 -49 0 -81 -4 -80 -10 1 -6 -20 -10 -50 -10 -37 0 -49 -3 -43 -11 10
-11 87 -14 105 -4 6 4 18 5 28 4 9 -2 15 0 13 4 -3 4 22 7 55 6 33 -1 62 2 65
6 2 4 13 6 24 4 12 -2 18 -1 16 4 -3 4 22 7 55 6 33 -1 62 2 65 6 2 4 13 6 24
4 14 -3 18 0 14 8 -4 7 -4 9 1 5 4 -4 14 -3 21 3 8 6 14 6 18 0 4 -5 2 -12 -4
-16 -6 -4 -8 -10 -6 -14 3 -4 -9 -7 -27 -7 -18 1 -31 -4 -30 -9 1 -7 -30 -11
-80 -11 -49 0 -81 -4 -80 -10 1 -6 -31 -10 -80 -10 -50 0 -81 -4 -80 -10 1 -6
-25 -10 -65 -9 -63 0 -66 2 -68 25 -1 14 -10 96 -19 183 -10 87 -16 160 -13
162 5 6 281 32 351 34 32 0 72 -5 90 -13z m61 -298 c-4 -5 -9 -7 -12 -4 -3 3
-12 0 -21 -7 -14 -10 -14 -10 -4 4 13 16 46 23 37 7z m-160 -20 c-4 -5 -9 -7
-12 -4 -3 3 -12 0 -21 -7 -14 -10 -14 -10 -4 4 13 16 46 23 37 7z m-160 -20
c-4 -5 -9 -7 -12 -4 -3 3 -12 0 -21 -7 -14 -10 -14 -10 -4 4 13 16 46 23 37 7z
m-4845 -73 c96 -25 189 -54 207 -66 117 -72 111 -273 -9 -336 -70 -36 -100
-35 -297 14 -102 25 -189 49 -193 53 -4 4 14 91 40 193 35 138 52 187 63 187
8 0 93 -20 189 -45z m13412 -246 l69 -76 -293 -275 c-160 -152 -301 -285 -311
-297 -21 -24 -32 -10 175 -228 l96 -102 274 259 274 259 102 -107 c56 -59 102
-110 103 -114 0 -3 -121 -120 -270 -260 -148 -139 -269 -256 -267 -260 4 -12
329 -358 337 -358 3 0 150 135 325 301 l318 301 103 -108 c57 -60 103 -114
104 -121 0 -6 -12 -21 -26 -32 -14 -11 -96 -87 -182 -169 -87 -82 -278 -264
-427 -405 l-270 -256 -115 122 c-925 979 -1160 1231 -1153 1238 4 4 206 194
448 423 l440 415 38 -37 c21 -20 70 -71 108 -113z m-11212 72 c17 -24 28 -48
24 -54 -3 -5 -1 -7 4 -4 6 4 16 0 23 -8 7 -8 9 -15 4 -15 -4 0 2 -10 14 -23
l22 -23 -43 0 c-24 0 -41 -4 -40 -10 1 -6 -14 -10 -34 -9 -34 1 -37 3 -39 33
-1 18 1 32 5 32 4 0 5 25 3 55 -4 59 3 94 17 79 5 -5 22 -29 40 -53z m-3075
-493 c-4 -5 -9 -7 -12 -4 -3 3 -12 0 -21 -7 -14 -10 -14 -10 -4 4 13 16 46 23
37 7z m-4959 -133 c66 -54 122 -100 123 -101 4 -2 -190 -239 -621 -759 -95
-115 -170 -216 -190 -255 -29 -59 -32 -73 -32 -155 0 -75 4 -97 24 -135 38
-71 155 -181 236 -221 62 -30 79 -34 150 -34 68 0 89 4 138 28 31 16 79 50
105 75 26 26 209 243 406 482 198 239 366 443 375 453 16 16 24 11 151 -93 74
-61 136 -114 138 -119 5 -14 -736 -903 -823 -987 -166 -162 -322 -224 -507
-204 -156 18 -339 117 -503 272 -199 188 -273 338 -262 533 10 197 62 286 404
700 580 702 533 648 551 632 9 -7 71 -58 137 -112z m4819 113 c-4 -5 -9 -7
-12 -4 -3 3 -12 0 -21 -7 -14 -10 -14 -10 -4 4 13 16 46 23 37 7z m-160 -20
c-4 -5 -9 -7 -12 -4 -3 3 -12 0 -21 -7 -14 -10 -14 -10 -4 4 13 16 46 23 37 7z
m-160 -20 c-4 -5 -9 -7 -12 -4 -3 3 -12 0 -21 -7 -14 -10 -14 -10 -4 4 13 16
46 23 37 7z m-140 -20 c-4 -5 -9 -7 -12 -4 -3 3 -12 0 -21 -7 -14 -10 -14 -10
-4 4 13 16 46 23 37 7z m-160 -20 c-4 -5 -9 -7 -12 -4 -3 3 -12 0 -21 -7 -14
-10 -14 -10 -4 4 13 16 46 23 37 7z m-160 -20 c-4 -5 -9 -7 -12 -4 -3 3 -12 0
-21 -7 -14 -10 -14 -10 -4 4 13 16 46 23 37 7z m-160 -20 c-4 -5 -9 -7 -12 -4
-3 3 -12 0 -21 -7 -14 -10 -14 -10 -4 4 13 16 46 23 37 7z m-140 -20 c-4 -5
-9 -7 -12 -4 -3 3 -12 0 -21 -7 -14 -10 -14 -10 -4 4 13 16 46 23 37 7z m-160
-20 c-4 -5 -9 -7 -12 -4 -3 3 -12 0 -21 -7 -14 -10 -14 -10 -4 4 13 16 46 23
37 7z m-160 -20 c-4 -5 -9 -7 -12 -4 -3 3 -12 0 -21 -7 -14 -10 -14 -10 -4 4
13 16 46 23 37 7z m-300 -40 c-4 -5 -9 -7 -12 -4 -3 3 -12 0 -21 -7 -14 -10
-14 -10 -4 4 13 16 46 23 37 7z m-160 -20 c-4 -5 -9 -7 -12 -4 -3 3 -12 0 -21
-7 -14 -10 -14 -10 -4 4 13 16 46 23 37 7z m-160 -20 c-4 -5 -9 -7 -12 -4 -3
3 -12 0 -21 -7 -14 -10 -14 -10 -4 4 13 16 46 23 37 7z m-140 -20 c-4 -5 -9
-7 -12 -4 -3 3 -12 0 -21 -7 -14 -10 -14 -10 -4 4 13 16 46 23 37 7z m-159
-17 c-9 -8 -36 -10 -30 -2 2 4 11 8 20 8 8 0 13 -3 10 -6z m15267 -433 c484
-685 1018 -1448 1018 -1455 -1 -13 -299 -218 -313 -215 -6 2 -317 134 -690
294 -435 187 -682 287 -688 281 -6 -6 17 -47 64 -114 40 -57 201 -286 358
-509 157 -223 288 -410 292 -416 8 -14 -282 -220 -293 -208 -11 13 -1060 1505
-1060 1509 0 3 313 225 336 238 6 3 301 -117 655 -267 452 -192 648 -271 656
-264 14 11 39 -26 -382 571 -154 219 -280 402 -280 407 0 8 268 207 282 210 1
0 21 -28 45 -62z m-15862 -803 c315 -191 374 -230 440 -295 155 -153 187 -313
98 -500 -35 -73 -113 -157 -176 -189 -54 -28 -145 -51 -199 -51 -24 0 -43 -3
-43 -7 0 -3 17 -29 39 -57 84 -110 119 -228 101 -340 -14 -88 -32 -136 -83
-214 -122 -189 -309 -284 -497 -253 -150 24 -196 47 -663 328 -206 124 -357
221 -355 228 2 7 216 366 477 798 316 524 478 784 486 779 6 -4 175 -106 375
-227z m13911 -579 c254 -79 455 -269 593 -559 192 -404 180 -742 -36 -998
-104 -123 -337 -268 -503 -312 -432 -115 -793 86 -1020 566 -91 194 -125 327
-125 493 0 135 20 226 77 342 114 234 396 426 703 481 72 13 253 5 311 -13z
m-12409 -237 c90 -39 164 -73 166 -74 2 -2 -133 -315 -299 -696 -166 -382
-304 -701 -306 -709 -3 -12 68 -47 294 -145 164 -71 335 -146 380 -166 l82
-38 -61 -138 c-33 -76 -62 -139 -63 -141 -6 -7 -1100 477 -1097 487 1 6 160
375 353 819 193 444 357 822 364 840 8 17 16 32 19 32 3 0 78 -32 168 -71z
m1587 -615 c84 -27 155 -54 158 -60 4 -10 -539 -1721 -556 -1750 -4 -8 -60 6
-175 42 -92 29 -171 55 -174 58 -3 3 104 347 238 763 134 417 261 814 282 881
32 102 42 123 56 119 9 -2 86 -26 171 -53z m8731 -31 c293 -71 500 -311 605
-698 90 -333 50 -601 -120 -808 -134 -162 -280 -236 -773 -388 -216 -67 -366
-109 -371 -103 -5 5 -131 403 -279 884 -187 605 -267 877 -259 881 23 13 634
199 722 220 173 41 339 46 475 12z m-7725 -257 c156 -32 160 -33 157 -57 -2
-13 -35 -174 -73 -357 -38 -183 -69 -339 -69 -347 0 -8 8 -15 18 -15 10 0 187
138 395 306 l377 305 183 -37 c100 -21 184 -39 186 -41 15 -11 -60 -78 -419
-372 -223 -183 -409 -337 -413 -344 -5 -7 93 -213 262 -546 149 -294 271 -540
271 -547 0 -7 -4 -15 -9 -18 -9 -6 -378 69 -399 81 -7 5 -118 210 -246 457
-154 295 -240 452 -253 457 -18 6 -24 -18 -97 -375 -44 -209 -82 -385 -87
-390 -8 -9 -337 51 -352 64 -4 4 76 411 178 905 102 494 185 902 185 907 0 4
10 6 23 3 12 -3 94 -20 182 -39z m6041 -1036 c73 -503 131 -916 130 -917 -3
-3 -343 -53 -362 -53 -7 0 -228 257 -489 570 -262 314 -483 570 -491 570 -8 0
-14 -8 -14 -17 1 -10 40 -294 89 -630 48 -337 86 -613 85 -613 -1 0 -80 -11
-175 -25 -95 -14 -174 -23 -176 -21 -8 8 -267 1826 -261 1831 3 4 97 20 209
36 165 24 204 28 214 17 7 -7 211 -250 454 -540 435 -517 483 -567 467 -489
-14 65 -166 1145 -162 1148 6 7 307 51 331 50 19 -2 28 -59 151 -917z m-2326
633 c1 -27 11 -444 24 -928 13 -484 23 -881 22 -881 -1 -1 -84 -3 -186 -5
l-185 -4 -22 820 c-12 451 -22 868 -22 927 l-1 107 108 4 c59 1 142 4 185 5
l77 2 0 -47z"/>
<path d="M13741 31314 c-63 -13 -116 -26 -119 -29 -4 -4 77 -423 83 -433 3 -4
237 48 285 63 51 17 92 51 116 97 23 44 15 168 -13 223 -57 109 -130 126 -352
79z"/>
<path d="M21737 30736 c-125 -45 -211 -158 -283 -371 -41 -122 -56 -265 -35
-341 37 -135 195 -244 361 -247 151 -3 250 71 338 254 175 360 119 614 -155
699 -75 23 -170 25 -226 6z"/>
<path d="M10914 30323 c3 -16 15 -147 27 -293 12 -146 23 -266 24 -268 3 -3
346 143 348 149 4 12 -376 439 -390 439 -11 0 -13 -7 -9 -27z"/>
<path d="M24159 29339 c-118 -105 -217 -194 -221 -198 -4 -4 68 -50 160 -103
92 -54 168 -93 170 -89 17 47 120 567 113 574 -4 4 -104 -78 -222 -184z"/>
<path d="M8299 28977 c-100 -28 -206 -111 -255 -199 -26 -48 -29 -62 -29 -148
0 -91 2 -99 42 -182 111 -232 266 -385 415 -410 56 -10 72 -9 135 11 127 38
245 148 274 254 6 23 9 74 7 114 -8 123 -108 304 -242 439 -42 42 -93 81 -126
97 -66 32 -156 42 -221 24z"/>
<path d="M16515 24500 c-982 -56 -1844 -263 -2730 -655 -1356 -600 -2554
-1641 -3353 -2914 -798 -1272 -1202 -2733 -1169 -4226 19 -817 146 -1551 398
-2292 391 -1151 1015 -2146 1885 -3004 253 -250 411 -388 689 -605 721 -562
1628 -1025 2525 -1288 154 -45 542 -140 695 -170 745 -147 1610 -174 2415 -76
1347 164 2656 707 3734 1548 987 771 1772 1766 2277 2889 434 966 653 1934
676 2998 17 786 -85 1559 -303 2301 -401 1368 -1162 2578 -2220 3533 -945 853
-2037 1434 -3289 1750 -368 92 -784 160 -1222 197 -213 18 -798 26 -1008 14z
m141 -5081 c32 -7 64 -16 69 -21 6 -5 19 -37 31 -71 21 -61 21 -62 75 -78 l54
-16 3 -59 3 -59 167 -75 c92 -41 191 -85 219 -98 l53 -23 -58 -71 -57 -70
-104 6 c-87 5 -102 4 -98 -8 3 -8 11 -33 17 -55 9 -36 18 -45 69 -70 54 -28
57 -32 53 -60 l-4 -31 -134 0 c-83 0 -135 -4 -139 -11 -4 -6 -9 -38 -12 -72
-5 -59 -7 -64 -55 -108 l-51 -45 51 -37 c48 -34 51 -38 45 -70 -5 -34 -3 -37
70 -91 69 -52 75 -60 79 -98 4 -40 3 -41 -45 -64 l-49 -22 49 -33 c34 -22 59
-50 78 -84 l28 -52 118 -38 c127 -42 127 -41 109 -105 l-10 -36 -208 -33 -208
-33 -12 -151 c-7 -84 -12 -170 -12 -191 0 -28 -10 -55 -37 -96 l-37 -57 -85
-6 -86 -5 -53 -58 c-92 -102 -91 -95 -38 -159 l45 -55 -16 -53 c-8 -28 -37
-124 -63 -212 l-47 -160 -66 -71 -66 -71 -137 -5 -136 -6 -224 133 -224 133
-196 -41 -195 -40 -64 63 -63 63 -109 -12 -109 -12 -83 40 c-46 22 -85 42 -87
43 -1 2 -19 91 -38 198 -20 107 -39 205 -41 218 -5 21 -11 22 -84 22 l-80 0
-7 56 c-6 49 -12 61 -50 96 l-44 41 0 279 0 279 62 107 c34 59 66 112 72 119
9 10 28 2 86 -32 41 -25 109 -56 150 -70 73 -24 287 -61 297 -52 3 3 -2 40
-11 82 -12 59 -13 81 -4 98 12 23 126 197 137 209 5 6 214 68 327 97 39 10 53
26 209 231 92 121 169 220 171 220 5 0 331 85 365 96 16 4 19 15 34 111 6 40
10 43 71 72 62 29 66 33 148 158 59 89 90 147 102 191 20 70 19 70 120 51z
m-6215 -379 l102 -71 199 16 200 17 60 -58 60 -59 -5 -60 c-5 -55 -1 -70 40
-166 l45 -106 46 17 46 18 173 -116 173 -115 27 -85 28 -86 85 -62 85 -63 15
49 c8 27 18 52 21 55 4 3 24 -1 45 -10 34 -14 72 -60 272 -330 l234 -315 121
0 122 -1 70 -66 c39 -36 66 -67 60 -69 -5 -2 -38 -22 -72 -44 -69 -44 -71 -48
-44 -125 l18 -50 77 -7 c71 -7 81 -10 129 -50 29 -23 54 -43 56 -45 2 -1 14
-58 26 -126 12 -68 25 -128 28 -134 4 -6 63 -30 132 -54 l126 -43 97 -131 c54
-71 101 -135 105 -141 3 -6 -3 -49 -14 -95 -23 -93 -24 -173 -10 -474 5 -99 8
-182 6 -184 -2 -2 -80 -12 -172 -22 -92 -10 -184 -21 -204 -24 -37 -5 -37 -4
-214 190 l-177 195 -81 0 -82 0 -240 315 c-176 231 -247 317 -265 321 -101 24
-71 -16 -375 475 l-280 452 -30 163 -30 163 -290 320 -290 319 -55 2 -55 1
-167 184 c-93 101 -168 190 -168 197 0 7 14 55 31 106 22 67 35 92 45 88 7 -3
59 -37 115 -76z m61 -766 c32 -6 38 -11 54 -53 10 -25 40 -70 67 -99 46 -48
49 -54 39 -78 -7 -14 -15 -23 -20 -21 -4 2 -60 35 -124 72 l-118 67 0 65 0 66
33 -7 c17 -4 48 -9 69 -12z m9398 -349 c11 -110 11 -111 -16 -173 -15 -35 -24
-69 -20 -79 5 -12 23 10 69 88 35 57 66 103 70 102 4 -2 22 -3 40 -3 51 0 60
-11 52 -61 -6 -33 -18 -54 -48 -83 l-41 -39 83 -77 83 -76 -7 -42 c-4 -23 -11
-44 -16 -48 -5 -3 -53 15 -106 40 -53 26 -98 44 -101 41 -4 -4 18 -209 34
-317 5 -36 4 -38 -22 -38 -19 0 -44 16 -83 53 l-56 52 3 105 3 105 -45 52
c-52 58 -57 79 -22 94 l24 11 -34 63 -34 62 17 111 16 111 71 30 c39 16 72 29
72 28 1 -1 7 -52 14 -112z m-848 -27 c38 -12 66 -27 64 -33 -2 -5 -17 -46 -31
-90 -32 -93 -37 -100 -89 -118 -32 -11 -42 -21 -53 -53 -7 -21 -18 -43 -22
-47 -5 -5 -64 -24 -130 -42 l-120 -33 -309 11 c-307 11 -310 10 -394 -12 l-84
-23 -72 22 c-39 12 -79 19 -89 15 -10 -3 -40 -25 -68 -50 l-49 -43 22 -158
c24 -173 25 -177 124 -255 l37 -30 66 17 c64 16 68 19 116 83 30 39 61 69 77
74 15 5 86 10 157 12 l130 3 120 55 c138 63 126 68 139 -55 l7 -66 -48 -6
c-26 -3 -83 -8 -126 -12 l-78 -6 -40 -57 c-37 -53 -51 -63 -180 -130 -76 -40
-139 -75 -139 -78 0 -3 57 -70 128 -150 l127 -145 7 -62 6 -63 103 -100 103
-101 -23 -50 c-22 -47 -26 -50 -69 -56 -24 -3 -58 -6 -73 -6 -25 0 -36 -11
-76 -71 l-47 -70 -40 7 c-23 3 -43 9 -46 13 -3 4 -68 100 -144 214 l-140 207
37 97 c21 53 36 98 34 99 -4 4 -147 -33 -154 -40 -3 -2 -18 -99 -34 -213 l-28
-209 28 -170 c16 -93 27 -171 25 -173 -5 -5 -337 -72 -341 -68 -1 2 18 93 43
202 l45 199 -33 118 -33 118 -76 0 -75 0 -41 129 -40 129 68 90 68 91 46 183
c43 173 47 185 81 214 l35 30 -11 87 -12 86 48 63 c88 116 156 187 226 240 58
42 88 56 171 79 56 16 107 28 114 29 6 0 15 -13 21 -28 l10 -28 135 -11 c111
-8 140 -14 165 -31 27 -20 43 -22 150 -22 65 0 159 3 208 6 l89 7 100 128 c55
71 102 129 104 129 3 0 35 -10 73 -22z m-8157 -28 c25 0 36 -10 69 -56 32 -47
38 -64 39 -107 0 -36 6 -58 19 -73 15 -17 17 -25 7 -53 -10 -29 -14 -32 -43
-25 -17 3 -31 7 -32 8 0 1 -140 186 -175 232 -5 6 3 26 17 48 20 30 31 37 47
32 12 -3 36 -6 52 -6z m9935 -465 c89 -45 90 -45 90 -83 l0 -38 -134 -33 -135
-33 -75 53 c-62 43 -73 55 -64 67 14 16 196 111 216 111 7 1 53 -19 102 -44z
m584 -139 l88 -64 37 15 c20 8 54 24 75 35 l39 20 36 -36 36 -36 11 -249 c7
-136 15 -258 18 -269 9 -28 27 -28 54 1 17 18 30 22 60 19 l39 -4 34 -99 c19
-55 39 -98 44 -95 6 2 46 12 89 22 l79 18 98 116 98 115 239 148 c132 81 243
147 248 147 5 0 133 -51 284 -113 l275 -113 95 13 c52 8 122 15 155 16 l60 2
3 -1012 2 -1012 -24 -17 c-25 -15 -27 -14 -169 105 l-145 121 -101 -22 c-55
-12 -103 -20 -105 -17 -2 2 -13 61 -23 130 l-19 126 33 40 33 40 -138 156
-138 156 -24 101 c-13 56 -29 107 -34 114 -6 7 -74 25 -151 39 -109 21 -209
50 -445 133 -323 112 -320 111 -391 202 -26 33 -27 34 -209 63 -101 16 -184
28 -185 26 -1 -1 -9 -28 -19 -59 l-17 -58 -64 0 c-35 0 -67 5 -70 11 -4 6 -12
59 -18 118 l-10 107 -119 49 c-66 27 -122 53 -124 57 -3 5 4 22 16 38 l21 30
122 0 122 0 122 57 122 57 -25 27 -26 27 -64 -35 -63 -35 -118 13 -118 12 -90
88 -90 89 -88 0 c-48 0 -87 4 -87 9 0 5 14 38 30 73 17 34 33 79 36 98 13 87
3 80 112 80 l98 0 28 65 28 65 102 0 102 0 88 -64z m-10045 -189 c11 -32 26
-54 44 -65 32 -20 34 -25 43 -121 l7 -74 -49 7 c-75 11 -78 13 -128 75 l-46
59 0 87 0 86 57 -3 56 -3 16 -48z m11101 -32 c52 -9 96 -17 98 -19 2 -2 -7
-20 -19 -38 -17 -27 -43 -44 -116 -75 l-93 -41 -48 18 c-45 17 -47 19 -58 74
-13 63 -13 62 50 82 54 17 74 17 186 -1z m-3845 -75 c4 -16 18 -39 32 -50 25
-19 25 -21 12 -57 -13 -33 -20 -38 -64 -48 -62 -14 -117 3 -156 47 l-27 29 -6
-25 c-7 -29 -14 -32 -40 -13 -17 12 -17 18 -5 71 7 31 17 60 23 64 11 7 204
20 218 14 3 -1 9 -16 13 -32z m-5332 -32 c27 -19 28 -19 63 3 l36 22 29 -29
c16 -16 42 -63 57 -103 l29 -74 76 -30 76 -30 -19 -46 c-17 -45 -17 -48 0 -94
18 -46 18 -47 -1 -58 -17 -8 -39 1 -129 53 l-110 63 -11 51 -12 52 -98 47 -99
47 25 30 c16 19 25 42 25 63 0 18 3 40 6 49 6 17 11 15 57 -16z m7090 -339
c12 -7 33 -24 47 -39 17 -19 42 -31 80 -39 167 -33 154 -28 203 -91 l46 -59
-16 -40 c-9 -23 -21 -41 -27 -41 -6 0 -56 11 -110 23 -97 22 -100 23 -108 55
l-9 32 -139 0 c-110 0 -147 4 -175 17 -34 16 -36 16 -57 -4 -18 -17 -45 -24
-120 -32 -54 -6 -119 -11 -147 -11 l-49 0 15 53 c9 28 19 56 24 61 4 5 38 22
76 37 63 27 76 29 204 29 l136 0 38 30 c41 33 55 36 88 19z m-723 -151 c0 -43
5 -57 27 -80 25 -26 26 -30 15 -66 -12 -38 -14 -39 -65 -45 -35 -3 -71 -16
-104 -36 -28 -17 -54 -31 -59 -31 -5 0 -39 46 -76 102 l-67 102 29 35 c27 35
31 36 142 52 171 25 158 28 158 -33z m-1089 -409 c42 -29 41 -79 -2 -110 l-31
-22 7 -73 7 -74 -30 0 c-32 0 -42 -17 -42 -72 0 -24 -4 -28 -27 -28 -48 0 -52
8 -41 80 7 47 18 75 39 102 24 31 29 46 29 93 0 40 6 65 23 90 26 41 30 42 68
14z m-244 -101 l45 -11 -6 -76 c-4 -42 -10 -93 -13 -113 l-6 -38 -58 0 -59 0
0 63 c0 51 3 64 20 75 16 9 20 23 20 62 0 28 3 50 6 50 3 0 26 -5 51 -12z
m-4456 -340 c18 -24 34 -44 34 -46 1 -1 53 -9 116 -17 63 -9 123 -18 134 -20
13 -3 35 -32 60 -80 l40 -75 212 -2 c117 -1 227 -2 244 -2 30 -1 33 3 59 69
24 60 32 72 61 82 63 22 76 17 122 -46 48 -67 38 -64 254 -77 l113 -7 45 -81
c44 -77 49 -83 118 -119 l72 -37 161 0 c189 0 174 12 174 -135 l0 -89 41 -42
c37 -38 40 -43 27 -63 -7 -11 -18 -21 -24 -21 -6 0 -51 20 -100 44 -50 24
-129 56 -176 72 l-86 28 -125 -29 -126 -28 -233 38 c-232 37 -233 38 -438 118
-113 44 -213 80 -223 79 -10 0 -58 -12 -108 -27 l-89 -25 -338 46 c-185 25
-340 50 -343 56 -4 6 -13 38 -20 70 l-12 60 -66 -6 c-36 -3 -111 -9 -167 -12
l-101 -7 -22 32 c-13 18 -20 35 -17 39 4 4 50 30 103 57 l96 50 48 85 c27 47
50 88 51 92 2 4 47 -6 101 -21 l97 -29 24 28 c24 29 43 34 138 38 32 2 40 -3
69 -40z m1963 -199 c2 -2 1 -19 -1 -37 -5 -31 -12 -37 -82 -69 -60 -28 -93
-36 -158 -40 -78 -6 -82 -5 -77 14 4 15 -5 29 -35 54 -23 18 -41 36 -41 40 0
8 93 39 117 39 7 0 13 -7 13 -15 0 -24 63 -19 86 6 17 19 27 21 97 17 42 -3
79 -7 81 -9z m7167 -86 l61 -17 -6 -85 c-10 -126 -11 -128 -59 -135 -26 -4
-54 -18 -72 -35 -20 -19 -53 -34 -99 -45 l-70 -17 -30 30 -30 31 24 32 c31 42
213 258 217 258 2 0 31 -8 64 -17z m-3450 -174 l22 -31 -45 -45 c-45 -45 -46
-45 -81 -32 -32 11 -41 10 -95 -14 l-61 -26 -7 57 c-4 31 -3 57 2 59 5 2 32
17 59 33 42 25 61 30 117 30 63 0 68 -2 89 -31z m-2529 -116 c10 -9 18 -24 18
-33 0 -9 11 -26 24 -39 20 -19 39 -23 137 -29 l114 -7 3 -92 3 -93 -51 0 c-28
0 -64 7 -81 15 -16 9 -64 18 -107 22 -68 5 -83 3 -122 -17 -35 -18 -73 -25
-187 -33 -95 -7 -146 -8 -153 -1 -7 7 5 32 35 75 l46 64 77 6 c45 3 91 1 112
-5 41 -13 150 -9 150 5 0 5 -27 21 -60 36 -40 17 -60 31 -60 43 0 10 -3 31 -6
48 -6 28 -4 32 27 41 49 14 60 13 81 -6z m1450 -30 c10 -9 18 -20 18 -24 0 -5
-23 -44 -50 -87 l-50 -79 -70 -7 c-53 -6 -77 -13 -99 -32 -35 -29 -71 -30
-127 -5 -68 31 -103 36 -118 15 -12 -16 -24 -17 -176 -6 l-162 12 -31 -24
c-28 -22 -32 -23 -54 -9 -13 8 -23 19 -23 24 0 5 23 47 50 94 l51 85 58 0 c49
0 59 -3 64 -19 4 -16 18 -20 73 -26 41 -4 83 -16 103 -28 43 -26 109 -25 132
3 11 12 36 21 75 25 58 7 60 6 82 -24 15 -20 31 -31 47 -31 34 0 154 98 155
126 0 37 22 45 52 17z m-2240 -24 c61 -29 68 -35 68 -60 0 -23 -13 -39 -64
-80 -36 -29 -66 -61 -68 -73 -2 -11 -12 -22 -22 -24 -15 -3 -18 0 -14 16 4 14
0 22 -12 25 -11 3 -20 19 -24 41 -6 30 -14 40 -44 54 -49 22 -72 42 -72 62 0
30 23 41 57 28 27 -10 36 -8 74 15 24 14 46 26 48 27 3 0 35 -14 73 -31z m368
-31 l39 -33 -39 -40 c-30 -31 -39 -49 -42 -80 -3 -36 -7 -41 -38 -52 -41 -14
-210 -17 -210 -4 0 5 -2 16 -6 24 -3 10 10 21 45 36 48 20 51 23 51 59 0 27 9
51 31 80 29 40 34 42 81 42 41 0 56 -5 88 -32z m3107 11 c30 -10 30 -11 19
-50 -10 -32 -23 -47 -71 -79 -32 -21 -81 -44 -109 -51 -29 -6 -64 -23 -81 -39
-21 -20 -52 -33 -105 -44 -41 -10 -92 -21 -112 -27 -26 -7 -89 -55 -210 -160
-99 -87 -192 -160 -218 -171 -42 -18 -205 -47 -213 -37 -2 2 1 55 7 116 l11
113 54 47 c45 39 68 51 140 70 84 22 86 24 153 97 111 121 170 146 318 135 47
-4 126 -7 175 -8 l90 0 60 49 c33 28 60 50 61 50 0 0 15 -5 31 -11z m-2142
-366 c50 -36 66 -43 106 -43 45 0 47 -1 53 -34 8 -40 15 -47 79 -70 45 -17 47
-19 47 -56 l0 -38 -89 -17 c-84 -16 -90 -16 -115 0 -18 12 -26 26 -26 45 0 24
-12 38 -77 84 -83 60 -127 71 -170 41 -16 -11 -34 -14 -62 -9 -37 6 -42 10
-53 45 -6 22 -9 41 -7 42 2 2 49 22 104 44 113 47 94 50 210 -34z"/>
<path d="M17928 9143 c7 -3 16 -2 19 1 4 3 -2 6 -13 5 -11 0 -14 -3 -6 -6z"/>
<path d="M25843 8576 c1 -6 -31 -10 -80 -10 -49 0 -81 -4 -80 -10 1 -6 -31
-10 -80 -10 -49 0 -81 -4 -80 -10 1 -6 -27 -10 -70 -10 -42 0 -71 -4 -70 -10
1 -6 -31 -10 -80 -10 -49 0 -81 -4 -80 -10 1 -6 -31 -10 -80 -10 -49 0 -81 -4
-80 -10 1 -6 -31 -10 -80 -10 -49 0 -81 -4 -80 -10 1 -6 -27 -10 -70 -10 -42
0 -71 -4 -70 -10 1 -6 -31 -10 -80 -10 -49 0 -81 -4 -80 -10 1 -6 -31 -10 -80
-10 -49 0 -81 -4 -80 -10 1 -6 -27 -10 -70 -10 -42 0 -71 -4 -70 -10 1 -6 -31
-10 -80 -10 -49 0 -81 -4 -80 -10 1 -6 -31 -10 -80 -10 -49 0 -81 -4 -80 -10
1 -6 -31 -10 -80 -10 -49 0 -81 -4 -80 -10 1 -6 -27 -10 -70 -10 -42 0 -71 -4
-70 -10 1 -6 -31 -10 -80 -10 -49 0 -81 -4 -80 -10 1 -6 -31 -10 -80 -10 -49
0 -81 -4 -80 -10 1 -6 -27 -10 -70 -10 -42 0 -71 -4 -70 -10 1 -6 -31 -10 -80
-10 -49 0 -81 -4 -80 -10 1 -6 -31 -10 -80 -10 -49 0 -81 -4 -80 -10 1 -6 -31
-10 -80 -10 -49 0 -81 -4 -80 -10 1 -6 -27 -10 -70 -10 -42 0 -71 -4 -70 -10
1 -6 -31 -10 -80 -10 -49 0 -81 -4 -80 -10 1 -6 -31 -10 -80 -10 -49 0 -81 -4
-80 -10 1 -6 -31 -10 -80 -10 -49 0 -81 -4 -80 -10 1 -6 -27 -10 -70 -10 -42
0 -71 -4 -70 -10 1 -6 -31 -10 -80 -10 -49 0 -81 -4 -80 -10 1 -6 -31 -10 -80
-10 -49 0 -81 -4 -80 -10 1 -6 -27 -10 -70 -10 -44 0 -71 -4 -70 -11 1 -5 -8
-9 -20 -9 -13 1 -20 -2 -18 -7 3 -4 1 -10 -5 -14 -6 -4 -8 -10 -6 -14 7 -10
47 -8 66 4 8 5 40 10 70 10 30 0 62 5 70 10 8 5 44 10 80 10 36 0 72 5 80 10
8 5 44 10 80 10 36 0 72 5 80 10 8 5 40 10 70 10 30 0 62 5 70 10 8 5 44 10
80 10 36 0 72 5 80 10 8 5 44 10 80 10 36 0 72 5 80 10 8 5 44 10 80 10 36 0
72 5 80 10 8 5 40 10 70 10 30 0 62 5 70 10 8 5 44 10 80 10 36 0 72 5 80 10
8 5 44 10 80 10 36 0 72 5 80 10 8 5 40 10 70 10 30 0 62 5 70 10 8 5 44 10
80 10 36 0 72 5 80 10 8 5 44 10 80 10 36 0 72 5 80 10 8 5 44 10 80 10 36 0
72 5 80 10 8 5 40 10 70 10 30 0 62 5 70 10 8 5 44 10 80 10 36 0 72 5 80 10
8 5 44 10 80 10 36 0 72 5 80 10 8 5 44 10 80 10 36 0 72 5 80 10 8 5 40 10
70 10 30 0 62 5 70 10 8 5 44 10 80 10 36 0 72 5 80 10 8 5 44 10 80 10 36 0
72 5 80 10 8 5 40 10 70 10 30 0 62 5 70 10 8 5 44 10 80 10 36 0 72 5 80 10
8 5 44 10 80 10 36 0 72 5 80 10 8 5 44 10 80 10 36 0 72 5 80 10 8 5 40 10
70 10 30 0 62 5 70 10 8 5 45 10 81 10 36 0 72 5 80 11 8 6 45 10 82 9 41 0
72 4 78 11 5 6 23 10 39 9 19 -2 36 5 49 19 l20 21 -64 0 c-36 0 -63 -4 -62
-9z m96 -12 c-5 -6 -23 -10 -39 -9 -16 1 -34 -3 -39 -9 -6 -7 -37 -11 -78 -11
-37 1 -74 -3 -82 -9 -8 -6 -44 -11 -80 -11 -36 0 -73 -5 -81 -10 -8 -5 -40
-10 -70 -10 -30 0 -62 -5 -70 -10 -8 -5 -44 -10 -80 -10 -36 0 -72 -5 -80 -10
-8 -5 -44 -10 -80 -10 -36 0 -72 -5 -80 -10 -8 -5 -44 -10 -80 -10 -36 0 -72
-5 -80 -10 -8 -5 -40 -10 -70 -10 -30 0 -62 -5 -70 -10 -8 -5 -44 -10 -80 -10
-36 0 -72 -5 -80 -10 -8 -5 -44 -10 -80 -10 -36 0 -72 -5 -80 -10 -8 -5 -40
-10 -70 -10 -30 0 -62 -5 -70 -10 -8 -5 -44 -10 -80 -10 -36 0 -72 -5 -80 -10
-8 -5 -44 -10 -80 -10 -36 0 -72 -5 -80 -10 -8 -5 -44 -10 -80 -10 -36 0 -72
-5 -80 -10 -8 -5 -40 -10 -70 -10 -30 0 -62 -5 -70 -10 -8 -5 -44 -10 -80 -10
-36 0 -72 -5 -80 -10 -8 -5 -44 -10 -80 -10 -36 0 -72 -5 -80 -10 -8 -5 -44
-10 -80 -10 -36 0 -72 -5 -80 -10 -8 -5 -40 -10 -70 -10 -30 0 -62 -5 -70 -10
-8 -5 -44 -10 -80 -10 -36 0 -72 -5 -80 -10 -8 -5 -44 -10 -80 -10 -36 0 -72
-5 -80 -10 -8 -5 -40 -10 -70 -10 -30 0 -62 -5 -70 -10 -8 -5 -44 -10 -80 -10
-36 0 -72 -5 -80 -10 -8 -5 -44 -10 -80 -10 -36 0 -72 -5 -80 -10 -8 -5 -44
-10 -80 -10 -36 0 -72 -5 -80 -10 -8 -5 -40 -10 -70 -10 -30 0 -62 -5 -70 -10
-8 -5 -44 -10 -80 -10 -36 0 -72 -5 -80 -10 -8 -5 -44 -10 -80 -10 -36 0 -72
-5 -80 -10 -8 -5 -40 -10 -70 -10 -30 0 -62 -5 -70 -10 -8 -5 -25 -10 -37 -11
-18 -1 -21 2 -12 12 6 8 15 12 19 9 4 -3 13 1 18 8 7 8 33 12 69 12 32 -1 64
3 72 9 8 6 44 11 80 11 36 0 73 5 81 10 8 5 44 10 80 10 36 0 72 5 80 10 8 5
40 10 70 10 30 0 62 5 70 10 8 5 44 10 80 10 36 0 72 5 80 10 8 5 44 10 80 10
36 0 72 5 80 10 8 5 44 10 80 10 36 0 72 5 80 10 8 5 40 10 70 10 30 0 62 5
70 10 8 5 44 10 80 10 36 0 72 5 80 10 8 5 44 10 80 10 36 0 72 5 80 10 8 5
44 10 80 10 36 0 72 5 80 10 8 5 40 10 70 10 30 0 62 5 70 10 8 5 44 10 80 10
36 0 72 5 80 10 8 5 44 10 80 10 36 0 72 5 80 10 8 5 40 10 70 10 30 0 62 5
70 10 8 5 44 10 80 10 36 0 72 5 80 10 8 5 44 10 80 10 36 0 72 5 80 10 8 5
44 10 80 10 36 0 72 5 80 10 8 5 40 10 70 10 30 0 62 5 70 10 8 5 44 10 80 10
36 0 72 5 80 10 8 5 44 10 80 10 36 0 72 5 80 10 8 5 40 10 70 10 30 0 62 5
70 10 8 5 44 10 80 10 36 0 72 5 80 10 8 5 44 10 80 10 36 0 72 5 80 10 8 5
44 10 80 10 36 0 72 5 80 10 8 5 40 10 70 10 30 0 62 5 70 10 8 5 45 10 81 10
36 0 72 5 80 11 8 6 45 10 82 9 37 0 72 4 77 10 5 6 29 11 54 11 33 0 42 -4
35 -12z"/>
<path d="M25849 8553 c-13 -16 -12 -17 4 -4 9 7 17 15 17 17 0 8 -8 3 -21 -13z"/>
<path d="M25689 8533 c-13 -16 -12 -17 4 -4 16 13 21 21 13 21 -2 0 -10 -8
-17 -17z"/>
<path d="M25529 8513 c-13 -16 -12 -17 4 -4 9 7 17 15 17 17 0 8 -8 3 -21 -13z"/>
<path d="M25389 8493 c-13 -16 -12 -17 4 -4 9 7 17 15 17 17 0 8 -8 3 -21 -13z"/>
<path d="M25229 8473 c-13 -16 -12 -17 4 -4 16 13 21 21 13 21 -2 0 -10 -8
-17 -17z"/>
<path d="M25069 8453 c-13 -16 -12 -17 4 -4 16 13 21 21 13 21 -2 0 -10 -8
-17 -17z"/>
<path d="M24909 8433 c-13 -16 -12 -17 4 -4 9 7 17 15 17 17 0 8 -8 3 -21 -13z"/>
<path d="M24769 8413 c-13 -16 -12 -17 4 -4 16 13 21 21 13 21 -2 0 -10 -8
-17 -17z"/>
<path d="M24609 8393 c-13 -16 -12 -17 4 -4 16 13 21 21 13 21 -2 0 -10 -8
-17 -17z"/>
<path d="M24449 8373 c-13 -16 -12 -17 4 -4 9 7 17 15 17 17 0 8 -8 3 -21 -13z"/>
<path d="M24309 8353 c-13 -16 -12 -17 4 -4 9 7 17 15 17 17 0 8 -8 3 -21 -13z"/>
<path d="M24149 8333 c-13 -16 -12 -17 4 -4 9 7 17 15 17 17 0 8 -8 3 -21 -13z"/>
<path d="M23989 8313 c-13 -16 -12 -17 4 -4 9 7 17 15 17 17 0 8 -8 3 -21 -13z"/>
<path d="M23829 8293 c-13 -16 -12 -17 4 -4 16 13 21 21 13 21 -2 0 -10 -8
-17 -17z"/>
<path d="M23689 8273 c-13 -16 -12 -17 4 -4 16 13 21 21 13 21 -2 0 -10 -8
-17 -17z"/>
<path d="M23529 8253 c-13 -16 -12 -17 4 -4 9 7 17 15 17 17 0 8 -8 3 -21 -13z"/>
<path d="M23369 8233 c-13 -16 -12 -17 4 -4 9 7 17 15 17 17 0 8 -8 3 -21 -13z"/>
<path d="M23069 8193 c-13 -16 -12 -17 4 -4 16 13 21 21 13 21 -2 0 -10 -8
-17 -17z"/>
<path d="M22909 8173 c-13 -16 -12 -17 4 -4 16 13 21 21 13 21 -2 0 -10 -8
-17 -17z"/>
<path d="M22749 8153 c-13 -16 -12 -17 4 -4 16 13 21 21 13 21 -2 0 -10 -8
-17 -17z"/>
<path d="M22609 8133 c-13 -16 -12 -17 4 -4 9 7 17 15 17 17 0 8 -8 3 -21 -13z"/>
<path d="M22449 8113 c-13 -16 -12 -17 4 -4 16 13 21 21 13 21 -2 0 -10 -8
-17 -17z"/>
<path d="M22289 8093 c-13 -16 -12 -17 4 -4 16 13 21 21 13 21 -2 0 -10 -8
-17 -17z"/>
<path d="M22129 8073 c-13 -16 -12 -17 4 -4 9 7 17 15 17 17 0 8 -8 3 -21 -13z"/>
<path d="M21989 8053 c-13 -16 -12 -17 4 -4 16 13 21 21 13 21 -2 0 -10 -8
-17 -17z"/>
<path d="M21829 8033 c-13 -16 -12 -17 4 -4 16 13 21 21 13 21 -2 0 -10 -8
-17 -17z"/>
<path d="M21669 8013 c-13 -16 -12 -17 4 -4 16 13 21 21 13 21 -2 0 -10 -8
-17 -17z"/>
<path d="M21529 7993 c-13 -16 -12 -17 4 -4 16 13 21 21 13 21 -2 0 -10 -8
-17 -17z"/>
<path d="M19963 7816 c1 -6 -27 -10 -70 -10 -42 0 -71 -4 -70 -10 1 -6 -31
-10 -80 -10 -49 0 -81 -4 -80 -10 1 -6 -31 -10 -80 -10 -49 0 -81 -4 -80 -10
1 -6 -31 -10 -80 -10 -50 0 -81 -4 -80 -11 1 -5 -7 -10 -18 -9 -15 1 -21 -5
-21 -21 0 -23 27 -28 56 -10 8 5 44 10 80 10 36 0 72 5 80 10 8 5 44 10 80 10
36 0 72 5 80 10 8 5 44 10 80 10 36 0 72 5 80 10 8 5 40 10 71 10 31 0 62 5
70 11 8 6 44 10 81 9 57 -1 65 1 55 14 -7 8 -12 17 -12 20 0 3 -32 6 -72 6
-42 0 -71 -3 -70 -9z m144 -11 c0 -7 -23 -10 -56 -10 -31 1 -62 -3 -70 -9 -8
-6 -39 -11 -70 -11 -31 0 -63 -5 -71 -10 -8 -5 -44 -10 -80 -10 -36 0 -72 -5
-80 -10 -8 -5 -44 -10 -80 -10 -36 0 -72 -5 -80 -10 -8 -5 -45 -10 -81 -10
-36 0 -72 -5 -80 -11 -16 -12 -39 -13 -39 -1 0 4 3 7 8 8 4 0 13 6 21 12 8 7
44 12 80 12 36 0 73 5 81 10 8 5 44 10 80 10 36 0 72 5 80 10 8 5 45 10 81 10
36 0 72 5 80 11 8 6 40 10 72 9 32 0 62 4 67 10 11 14 137 14 137 0z"/>
<path d="M19969 7793 c-13 -16 -12 -17 4 -4 9 7 17 15 17 17 0 8 -8 3 -21 -13z"/>
<path d="M19829 7773 c-13 -16 -12 -17 4 -4 9 7 17 15 17 17 0 8 -8 3 -21 -13z"/>
<path d="M19669 7753 c-13 -16 -12 -17 4 -4 9 7 17 15 17 17 0 8 -8 3 -21 -13z"/>
<path d="M19509 7733 c-13 -16 -12 -17 4 -4 9 7 17 15 17 17 0 8 -8 3 -21 -13z"/>
<path d="M19349 7713 c-13 -16 -12 -17 4 -4 9 7 17 15 17 17 0 8 -8 3 -21 -13z"/>
<path d="M17803 7536 c1 -6 -26 -10 -70 -10 -42 0 -71 -4 -70 -10 1 -6 -31
-10 -80 -10 -49 0 -81 -4 -80 -10 1 -6 -31 -10 -80 -10 -49 0 -81 -4 -80 -10
1 -6 -31 -10 -80 -10 -49 0 -81 -4 -80 -10 1 -6 -27 -10 -70 -10 -43 0 -71 -4
-70 -10 1 -6 -23 -10 -58 -10 -55 0 -61 -2 -61 -21 0 -19 6 -21 61 -20 33 0
67 5 75 10 8 5 40 10 70 10 30 0 62 5 70 10 8 5 44 10 80 10 36 0 72 5 80 10
8 5 44 10 80 10 36 0 72 5 80 10 8 5 40 10 71 10 31 0 62 5 70 11 8 6 45 10
82 9 41 0 72 4 78 11 5 6 22 10 38 9 28 -2 36 13 17 32 -11 12 -75 11 -73 -1z
m67 -11 c0 -6 -8 -10 -17 -10 -10 0 -25 -5 -33 -10 -8 -5 -44 -10 -80 -10 -36
0 -72 -5 -80 -10 -8 -5 -40 -10 -70 -10 -30 0 -62 -5 -70 -10 -8 -5 -44 -10
-80 -10 -36 0 -72 -5 -80 -10 -8 -5 -44 -10 -80 -10 -36 0 -72 -5 -80 -10 -8
-5 -40 -10 -71 -10 -31 0 -62 -5 -70 -11 -18 -13 -119 -12 -119 1 0 6 21 10
48 10 26 0 54 5 62 10 8 5 40 10 70 10 30 0 62 5 70 10 8 5 44 10 80 10 36 0
72 5 80 10 8 5 44 10 80 10 36 0 72 5 80 10 8 5 45 10 81 10 36 0 72 5 80 11
8 6 40 10 72 9 33 0 62 4 67 11 12 13 60 12 60 -1z"/>
<path d="M17809 7513 c-13 -16 -12 -17 4 -4 9 7 17 15 17 17 0 8 -8 3 -21 -13z"/>
<path d="M17509 7473 c-13 -16 -12 -17 4 -4 9 7 17 15 17 17 0 8 -8 3 -21 -13z"/>
<path d="M17349 7453 c-13 -16 -12 -17 4 -4 9 7 17 15 17 17 0 8 -8 3 -21 -13z"/>
<path d="M17189 7433 c-13 -16 -12 -17 4 -4 9 7 17 15 17 17 0 8 -8 3 -21 -13z"/>
<path d="M17049 7413 c-13 -16 -12 -17 4 -4 9 7 17 15 17 17 0 8 -8 3 -21 -13z"/>
<path d="M16423 7356 c1 -6 -12 -11 -31 -10 l-32 1 21 -23 c22 -24 38 -25 61
-6 8 6 17 11 19 9 2 -1 3 0 2 2 -2 2 2 10 8 18 13 15 14 14 -23 17 -15 2 -26
-2 -25 -8z m26 -22 c-22 -23 -42 -25 -61 -6 -9 9 -7 11 10 7 11 -2 25 2 31 9
6 7 18 13 26 13 12 0 11 -5 -6 -23z"/>
<path d="M16429 7333 c-13 -16 -12 -17 4 -4 9 7 17 15 17 17 0 8 -8 3 -21 -13z"/>
<path d="M15183 7196 c1 -6 -30 -10 -80 -10 -49 0 -81 -4 -80 -10 1 -6 -27
-10 -70 -10 -42 0 -71 -4 -70 -10 1 -6 -31 -10 -80 -10 -49 0 -81 -4 -80 -10
1 -6 -31 -10 -80 -10 -49 0 -81 -4 -80 -10 1 -6 -31 -10 -80 -10 -48 0 -81 -4
-80 -10 1 -6 -12 -10 -30 -11 -33 0 -46 -7 -49 -28 -2 -16 73 -17 96 -2 8 5
44 10 80 10 36 0 72 5 80 10 8 5 44 10 80 10 36 0 72 5 80 10 8 5 44 10 80 10
36 0 72 5 80 10 8 5 40 10 70 10 30 0 62 5 70 10 8 5 44 10 80 10 36 0 72 5
80 10 8 5 38 10 65 10 43 0 50 3 50 20 0 18 -7 20 -67 20 -39 1 -66 -3 -65 -9z
m124 -11 c0 -7 -20 -11 -49 -10 -27 1 -53 -3 -58 -10 -5 -6 -38 -10 -77 -10
-37 1 -74 -3 -82 -9 -8 -6 -39 -11 -70 -11 -31 0 -63 -5 -71 -10 -8 -5 -44
-10 -80 -10 -36 0 -72 -5 -80 -10 -8 -5 -44 -10 -80 -10 -36 0 -72 -5 -80 -10
-8 -5 -45 -10 -81 -10 -36 0 -72 -5 -80 -11 -18 -13 -79 -12 -79 1 0 6 12 10
28 10 15 0 34 5 42 10 8 5 44 10 80 10 36 0 72 5 80 10 8 5 44 10 80 10 36 0
72 5 80 10 8 5 44 10 80 10 36 0 72 5 80 10 8 5 40 10 71 10 31 0 62 5 70 11
8 6 45 10 82 9 37 0 72 4 77 10 12 14 117 14 117 0z"/>
<path d="M15189 7173 c-13 -16 -12 -17 4 -4 9 7 17 15 17 17 0 8 -8 3 -21 -13z"/>
<path d="M15029 7153 c-13 -16 -12 -17 4 -4 9 7 17 15 17 17 0 8 -8 3 -21 -13z"/>
<path d="M14889 7133 c-13 -16 -12 -17 4 -4 9 7 17 15 17 17 0 8 -8 3 -21 -13z"/>
<path d="M14729 7113 c-13 -16 -12 -17 4 -4 9 7 17 15 17 17 0 8 -8 3 -21 -13z"/>
<path d="M14569 7093 c-13 -16 -12 -17 4 -4 9 7 17 15 17 17 0 8 -8 3 -21 -13z"/>
<path d="M14409 7073 c-13 -16 -12 -17 4 -4 9 7 17 15 17 17 0 8 -8 3 -21 -13z"/>
<path d="M12820 6865 c-6 -8 -20 -12 -30 -10 -11 2 -22 0 -24 -4 -8 -13 103
-6 116 7 7 8 9 13 3 12 -5 -2 -12 -1 -15 0 -21 8 -41 6 -50 -5z m44 -6 c3 -3
-5 -5 -19 -5 -13 0 -22 3 -19 7 4 8 30 6 38 -2z"/>
<path d="M12716 6842 c-3 -5 -24 -8 -46 -7 -22 1 -43 -1 -45 -5 -7 -12 84 -5
97 8 6 6 9 12 6 12 -4 0 -9 -4 -12 -8z"/>
<path d="M12576 6822 c-3 -5 -28 -8 -56 -7 -28 1 -53 -1 -55 -5 -7 -12 104 -5
117 8 6 6 9 12 6 12 -4 0 -9 -4 -12 -8z"/>
<path d="M12416 6802 c-3 -5 -28 -8 -56 -7 -28 1 -53 -1 -55 -5 -7 -12 104 -5
117 8 6 6 9 12 6 12 -4 0 -9 -4 -12 -8z"/>
<path d="M12256 6782 c-3 -5 -24 -8 -46 -7 -22 1 -43 -1 -45 -5 -7 -12 84 -5
97 8 6 6 9 12 6 12 -4 0 -9 -4 -12 -8z"/>
<path d="M12116 6762 c-3 -5 -28 -8 -56 -7 -28 1 -53 -1 -55 -5 -7 -12 104 -5
117 8 6 6 9 12 6 12 -4 0 -9 -4 -12 -8z"/>
<path d="M11956 6742 c-3 -5 -28 -8 -56 -7 -28 1 -53 -1 -55 -5 -7 -12 104 -5
117 8 6 6 9 12 6 12 -4 0 -9 -4 -12 -8z"/>
<path d="M11796 6722 c-3 -5 -28 -8 -56 -7 -28 1 -53 -1 -55 -5 -7 -12 104 -5
117 8 6 6 9 12 6 12 -4 0 -9 -4 -12 -8z"/>
<path d="M11636 6702 c-3 -5 -24 -8 -46 -7 -22 1 -43 -1 -45 -5 -7 -12 84 -5
97 8 6 6 9 12 6 12 -4 0 -9 -4 -12 -8z"/>
<path d="M11496 6682 c-3 -5 -28 -8 -56 -7 -28 1 -53 -1 -55 -5 -7 -12 104 -5
117 8 6 6 9 12 6 12 -4 0 -9 -4 -12 -8z"/>
<path d="M11336 6662 c-3 -5 -28 -8 -56 -7 -28 1 -53 -1 -55 -5 -7 -12 104 -5
117 8 6 6 9 12 6 12 -4 0 -9 -4 -12 -8z"/>
<path d="M11176 6642 c-3 -5 -28 -8 -56 -7 -28 1 -53 -1 -55 -5 -7 -12 104 -5
117 8 6 6 9 12 6 12 -4 0 -9 -4 -12 -8z"/>
<path d="M10925 6610 c-5 -7 82 -7 89 0 3 3 -15 6 -40 6 -25 0 -47 -3 -49 -6z"/>
<path d="M10876 6602 c-3 -5 -28 -8 -56 -7 -28 1 -53 -1 -55 -5 -7 -12 104 -5
117 8 6 6 9 12 6 12 -4 0 -9 -4 -12 -8z"/>
<path d="M10716 6582 c-3 -5 -28 -8 -56 -7 -28 1 -53 -1 -55 -5 -7 -12 104 -5
117 8 6 6 9 12 6 12 -4 0 -9 -4 -12 -8z"/>
<path d="M10556 6562 c-3 -5 -24 -8 -46 -7 -22 1 -43 -1 -45 -5 -7 -12 84 -5
97 8 6 6 9 12 6 12 -4 0 -9 -4 -12 -8z"/>
<path d="M10416 6542 c-3 -5 -28 -8 -56 -7 -28 1 -53 -1 -55 -5 -7 -12 104 -5
117 8 6 6 9 12 6 12 -4 0 -9 -4 -12 -8z"/>
<path d="M10220 6528 c0 -3 6 -11 14 -17 10 -9 17 -7 27 6 12 16 12 17 -2 6
-12 -10 -18 -10 -27 -1 -7 7 -12 9 -12 6z"/>
<path d="M25683 28493 l-132 -176 87 -67 c124 -95 161 -118 213 -129 64 -14
112 1 170 56 60 56 89 114 89 179 0 77 -37 127 -173 228 -62 47 -116 86 -118
85 -2 0 -63 -79 -136 -176z"/>
<path d="M27628 26833 c-75 -71 -137 -130 -137 -133 -1 -3 47 -56 106 -119
141 -149 197 -176 281 -131 117 62 159 158 112 254 -11 23 -66 89 -122 149
l-103 107 -137 -127z"/>
<path d="M5640 26596 c0 -5 281 -499 290 -509 4 -5 65 55 135 133 70 77 125
143 123 146 -3 3 -121 56 -263 119 -230 103 -285 124 -285 111z"/>
<path d="M28545 25830 c-71 -56 -133 -104 -137 -108 -10 -10 155 -225 205
-269 71 -62 160 -50 236 32 49 53 60 100 37 158 -14 36 -194 286 -206 287 -3
0 -63 -45 -135 -100z"/>
<path d="M28059 25454 c-90 -70 -165 -127 -166 -128 -4 -3 200 -263 234 -298
71 -73 151 -84 239 -33 117 68 150 172 90 280 -20 37 -223 305 -231 305 -1 0
-76 -57 -166 -126z"/>
<path d="M29267 24470 c-148 -37 -270 -70 -273 -72 -3 -3 186 -310 200 -325 3
-4 370 443 374 456 6 18 -18 13 -301 -59z"/>
<path d="M2926 22322 c-7 -11 26 -42 255 -240 l187 -161 75 177 c41 97 73 178
72 179 -1 2 -111 12 -246 23 -134 10 -265 22 -291 25 -25 3 -49 2 -52 -3z"/>
<path d="M30421 22189 c-129 -11 -236 -21 -238 -23 -3 -2 28 -83 67 -180 l72
-176 27 23 c236 198 421 360 421 368 0 12 -72 10 -349 -12z"/>
<path d="M2600 21171 c-79 -24 -161 -92 -209 -173 -34 -58 -121 -332 -107
-339 18 -10 898 -280 901 -277 9 9 76 249 86 305 41 232 -95 392 -397 468 -97
25 -220 32 -274 16z"/>
<path d="M30974 19705 c3 -12 21 -95 41 -185 20 -90 37 -165 39 -167 7 -7 506
290 506 301 0 8 -96 21 -296 41 -295 30 -295 30 -290 10z"/>
<path d="M2325 19514 c-148 -18 -271 -33 -273 -33 -22 -4 44 -47 254 -166 204
-116 250 -139 256 -126 4 9 21 84 38 166 16 83 32 160 35 173 7 27 29 28 -310
-14z"/>
<path d="M2434 18301 c-44 -20 -74 -56 -93 -111 -11 -33 -55 -389 -48 -396 6
-6 408 -46 413 -41 3 2 14 86 24 186 23 209 18 260 -32 317 -53 60 -182 82
-264 45z"/>
<path d="M1885 18293 c-70 -16 -102 -45 -123 -113 -10 -33 -45 -320 -39 -326
5 -6 308 -35 329 -32 21 3 24 10 35 113 19 179 17 246 -10 286 -34 51 -129 87
-192 72z"/>
<path d="M4130 10718 c-118 -61 -216 -112 -218 -113 -6 -6 157 -320 187 -363
67 -91 176 -112 294 -54 107 53 156 132 142 233 -6 43 -102 253 -167 366 l-24
42 -214 -111z"/>
<path d="M29534 10519 c-8 -13 527 -552 537 -541 22 22 220 425 213 431 -7 6
-706 121 -736 121 -4 0 -10 -5 -14 -11z"/>
<path d="M6190 7533 c-113 -102 -205 -189 -205 -194 0 -4 55 -69 122 -143 138
-151 205 -196 292 -196 138 0 301 160 301 294 0 83 -41 153 -174 299 -65 70
-120 127 -124 127 -4 -1 -99 -84 -212 -187z"/>
<path d="M18809 7633 c-13 -16 -12 -17 4 -4 9 7 17 15 17 17 0 8 -8 3 -21 -13z"/>
<path d="M18756 7622 c-3 -5 -28 -8 -56 -7 -28 1 -53 -1 -55 -5 -7 -12 104 -5
117 8 6 6 9 12 6 12 -4 0 -9 -4 -12 -8z"/>
<path d="M18596 7602 c-3 -5 -28 -8 -56 -7 -28 1 -53 -1 -55 -5 -7 -12 104 -5
117 8 6 6 9 12 6 12 -4 0 -9 -4 -12 -8z"/>
<path d="M18323 7577 c0 -18 103 -16 119 3 11 12 10 12 -2 4 -17 -11 -89 -13
-106 -2 -6 4 -11 2 -11 -5z"/>
<path d="M15803 7275 c1 -5 -7 -10 -18 -9 -15 1 -21 -5 -21 -21 0 -16 6 -21
22 -21 12 1 28 6 35 12 8 6 26 10 42 9 25 -2 26 0 12 15 -8 9 -13 19 -10 21 2
3 -11 5 -30 5 -18 0 -33 -5 -32 -11z m58 -12 c9 -9 7 -11 -7 -9 -11 2 -26 -2
-34 -8 -8 -7 -21 -12 -27 -12 -15 1 -18 21 -3 21 5 0 14 5 20 11 14 14 36 12
51 -3z"/>
<path d="M15809 7253 c-13 -16 -12 -17 4 -4 9 7 17 15 17 17 0 8 -8 3 -21 -13z"/>
<path d="M9359 4923 c-61 -103 -114 -191 -115 -194 -7 -13 351 -218 396 -228
109 -24 194 28 250 151 37 81 22 156 -44 226 -26 29 -313 210 -359 227 -11 5
-43 -41 -128 -182z"/>
<path d="M8956 4255 c-75 -124 -136 -229 -136 -233 0 -8 335 -212 398 -242
111 -54 202 -45 282 27 136 122 148 305 27 409 -38 32 -382 245 -420 260 -11
4 -49 -51 -151 -221z"/>
<path d="M23223 4396 c-94 -31 -155 -67 -224 -133 -160 -152 -163 -374 -9
-685 151 -303 326 -434 537 -401 86 13 203 62 268 111 184 139 213 357 88 648
-106 244 -219 386 -362 452 -80 37 -202 40 -298 8z"/>
<path d="M21135 3540 c-48 -9 -373 -105 -381 -113 -2 -2 78 -267 177 -589
l181 -585 168 53 c207 64 286 103 365 176 109 101 141 191 132 372 -14 301
-174 592 -365 665 -65 26 -197 35 -277 21z"/>
</g>
</svg>
